<svg xmlns="http://www.w3.org/2000/svg" viewBox="0 0 432 120" width="432" height="120" role="img">
  <rect x="14" y="22" width="404" height="84" fill="#000000"/>
  <g transform="translate(0,0)">
    <rect x="6" y="8" width="404" height="84" fill="#FFD700" stroke="#000000" stroke-width="10"/>
    <rect x="18" y="20" width="380" height="60" fill="none" stroke="#C1121F" stroke-width="4" opacity="0.85"/>
    <polygon points="6,8 46,8 6,48" fill="#C1121F"/>
    <polygon points="410,92 370,92 410,52" fill="#C1121F"/>
    <rect x="190" y="54" width="69" height="1.9" fill="#000000" opacity="0.22" transform="rotate(0 190 54)"/>
    <rect x="241" y="31" width="41" height="2.3" fill="#000000" opacity="0.22" transform="rotate(12 241 31)"/>
    <rect x="55" y="38" width="12" height="2.6" fill="#000000" opacity="0.22" transform="rotate(8 55 38)"/>
    <rect x="36" y="79" width="71" height="2.3" fill="#000000" opacity="0.22" transform="rotate(5 36 79)"/>
    <rect x="79" y="21" width="42" height="1.1" fill="#000000" opacity="0.22" transform="rotate(-12 79 21)"/>
    <rect x="111" y="22" width="37" height="1.9" fill="#000000" opacity="0.22" transform="rotate(14 111 22)"/>
    <rect x="215" y="58" width="40" height="2.3" fill="#000000" opacity="0.22" transform="rotate(-2 215 58)"/>
    <rect x="125" y="80" width="73" height="2.7" fill="#000000" opacity="0.22" transform="rotate(8 125 80)"/>
    <rect x="139" y="34" width="26" height="1.1" fill="#000000" opacity="0.22" transform="rotate(11 139 34)"/>
    <rect x="171" y="71" width="32" height="2.9" fill="#000000" opacity="0.22" transform="rotate(14 171 71)"/>
    <rect x="20" y="33" width="68" height="1.9" fill="#000000" opacity="0.22" transform="rotate(19 20 33)"/>
    <rect x="169" y="24" width="49" height="2.6" fill="#000000" opacity="0.22" transform="rotate(-9 169 24)"/>
    <rect x="53" y="40" width="71" height="2.5" fill="#000000" opacity="0.22" transform="rotate(-15 53 40)"/>
    <rect x="113" y="26" width="10" height="2.6" fill="#000000" opacity="0.22" transform="rotate(-13 113 26)"/>
  </g>
</svg>
